<svg width="39" height="38" viewBox="0 0 39 38" fill="none" xmlns="http://www.w3.org/2000/svg">
<g id="brain icon">
<path id="Path" d="M22.4148 30.2162H16.644L17.4422 36.0581C17.5453 36.8119 18.2256 37.3762 19.0312 37.3762H20.0278C20.8334 37.3762 21.5137 36.8119 21.6167 36.0581L22.4148 30.2162Z" fill="#EDA1AB"/>
<path id="Path_2" d="M17.3222 35.18C18.0364 35.331 18.7764 35.409 19.5294 35.409C20.2824 35.409 21.0225 35.331 21.7366 35.18L22.4148 30.2162H16.644L17.3222 35.18Z" fill="#E8899E"/>
<path id="Oval" d="M19.5295 33.1868C23.2633 33.1868 26.2901 30.6924 26.2901 27.6153C26.2901 24.5383 23.2633 22.0439 19.5295 22.0439C15.7957 22.0439 12.7689 24.5383 12.7689 27.6153C12.7689 30.6924 15.7957 33.1868 19.5295 33.1868Z" fill="#F6EE86"/>
<path id="Path_3" d="M32.8869 8.90318C32.8869 8.8974 32.8874 8.8917 32.8874 8.88585C32.8874 4.28836 28.9366 0.561401 24.063 0.561401C23.1208 0.561401 22.2134 0.700957 21.3622 0.959105C20.2716 1.28985 19.5294 2.24348 19.5294 3.32407C19.5294 2.24348 18.7871 1.28985 17.6966 0.959105C16.8454 0.700957 15.938 0.561401 14.9958 0.561401C10.1222 0.561401 6.17135 4.28836 6.17135 8.88585C6.17135 8.8917 6.17183 8.8974 6.17183 8.90318C2.92585 10.4864 0.705688 13.6802 0.705688 17.3651C0.705688 22.2932 4.674 26.3468 9.76064 26.8378C11.1488 28.7468 13.4773 29.9996 16.1167 29.9996C16.7042 29.9996 17.2761 29.9373 17.8257 29.8195C18.8208 29.6061 19.5294 28.7749 19.5294 27.8122C19.5294 28.7749 20.2379 29.6061 21.233 29.8195C21.7827 29.9373 22.3545 29.9996 22.942 29.9996C25.5814 29.9996 27.9099 28.7468 29.2981 26.8378C34.3847 26.3468 38.353 22.2933 38.353 17.3651C38.3531 13.6802 36.1329 10.4864 32.8869 8.90318Z" fill="#EDA1AB"/>
<path id="Path_4" d="M10.5952 16.3422C9.04031 14.6943 8.76226 11.7129 9.08703 7.98067C8.53462 7.33482 7.99525 4.75727 10.0813 1.97119C7.72325 3.46556 6.17148 6.00467 6.17148 8.88586C6.17148 8.89171 6.17195 8.89741 6.17195 8.90319C2.92597 10.4865 0.705811 13.6802 0.705811 17.3651C0.705811 22.2932 4.67412 26.3468 9.76076 26.8379C11.149 28.7468 13.4774 29.9996 16.1168 29.9996C16.7043 29.9996 17.2763 29.9373 17.8258 29.8195C18.157 29.7485 18.4552 29.608 18.7073 29.4181C11.0459 28.6628 9.43827 20.111 10.7437 17.339C10.9008 17.0054 10.8525 16.6149 10.5952 16.3422Z" fill="#E8899E"/>
<path id="Path_5" d="M21.3015 8.61718V6.16074C21.3015 5.91585 21.091 5.71741 20.8315 5.71741H18.2276C17.968 5.71741 17.7575 5.91593 17.7575 6.16074V8.61711C17.7575 8.862 17.5471 9.06044 17.2876 9.06044H14.6837C14.4241 9.06044 14.2136 9.25896 14.2136 9.50385V11.9602C14.2136 12.2051 14.4241 12.4036 14.6837 12.4036H17.2876C17.5472 12.4036 17.7575 12.6021 17.7575 12.8469V15.3033C17.7575 15.5481 17.968 15.7466 18.2276 15.7466H20.8315C21.091 15.7466 21.3015 15.5481 21.3015 15.3033V12.8469C21.3015 12.602 21.5119 12.4036 21.7715 12.4036H24.3754C24.635 12.4036 24.8455 12.205 24.8455 11.9602V9.50385C24.8455 9.25896 24.635 9.06044 24.3754 9.06044H21.7715C21.5119 9.06052 21.3015 8.862 21.3015 8.61718Z" fill="white"/>
<g id="Group">
<path id="Oval_2" d="M13.3751 22.631C14.6292 22.631 15.6459 21.8673 15.6459 20.9251C15.6459 19.9829 14.6292 19.2192 13.3751 19.2192C12.1209 19.2192 11.1042 19.9829 11.1042 20.9251C11.1042 21.8673 12.1209 22.631 13.3751 22.631Z" fill="white"/>
<path id="Oval_3" d="M25.6837 22.631C26.9379 22.631 27.9546 21.8673 27.9546 20.9251C27.9546 19.9829 26.9379 19.2192 25.6837 19.2192C24.4296 19.2192 23.4128 19.9829 23.4128 20.9251C23.4128 21.8673 24.4296 22.631 25.6837 22.631Z" fill="white"/>
</g>
<path id="Shape" fill-rule="evenodd" clip-rule="evenodd" d="M21.182 0.430229C27.1282 -1.37325 33.2515 2.71364 33.4705 8.56845C36.8549 10.3533 38.9421 13.6934 38.9423 17.3652C38.9423 19.9162 37.9298 22.3504 36.0912 24.2192C35.8699 24.4441 35.4973 24.4571 35.259 24.2484C35.0205 24.0397 35.0066 23.6882 35.2279 23.4633C36.8636 21.8006 37.7644 19.6349 37.7644 17.3651C37.7644 12.3533 33.4496 8.39786 28.2586 8.39786C27.9333 8.39786 27.6697 8.14912 27.6697 7.8423C27.6697 7.53549 27.9333 7.28675 28.2586 7.28675C29.6443 7.28675 30.9814 7.53164 32.2465 8.01482C31.671 3.17245 26.5049 -0.0174007 21.5427 1.48801C20.6908 1.74638 20.1185 2.48423 20.1185 3.32408C20.1185 3.6309 19.8549 3.87964 19.5296 3.87964C19.2043 3.87964 18.9407 3.6309 18.9407 3.32408C18.9407 2.48423 18.3684 1.74638 17.5165 1.48801C15.314 0.819784 12.8144 1.04356 10.7242 2.24238C10.4464 2.40164 10.0838 2.31853 9.91499 2.0563C9.74601 1.79415 9.83435 1.45238 10.1122 1.29297C11.5805 0.45097 13.2692 0.00585867 14.9959 0.00585867C15.9792 0.00585867 16.9486 0.148673 17.877 0.430229C18.564 0.638673 19.1355 1.04564 19.5295 1.57119C19.9235 1.04564 20.495 0.638599 21.182 0.430229ZM33.1701 25.0441C32.3111 25.5341 31.3927 25.8862 30.4287 26.0976C30.9582 25.0525 31.2346 23.9086 31.2346 22.7326C31.2346 22.4258 30.971 22.177 30.6457 22.177C30.3203 22.177 30.0567 22.4258 30.0567 22.7326C30.0567 27.0332 25.8139 30.2319 21.3635 29.2777C20.6304 29.1205 20.1184 28.5179 20.1184 27.8122V24.7852C20.1184 24.4784 19.8548 24.2296 19.5295 24.2296C19.2042 24.2296 18.9406 24.4784 18.9406 24.7852V27.8122C18.9406 28.5179 18.4286 29.1205 17.6954 29.2777C13.2583 30.229 9.00224 27.0476 9.00224 22.7326C9.00224 22.4258 8.73864 22.177 8.41332 22.177C8.088 22.177 7.82439 22.4258 7.82439 22.7326C7.82439 23.9083 8.10064 25.0519 8.6298 26.0967C4.35235 25.1537 1.29474 21.5432 1.29474 17.3652C1.29474 12.351 5.61248 8.39793 10.8006 8.39793C11.1259 8.39793 11.3895 8.14919 11.3895 7.84238C11.3895 7.53556 11.1259 7.28682 10.8006 7.28682C9.41558 7.28682 8.07912 7.53141 6.81459 8.01408C6.99841 6.48008 7.66177 5.02356 8.73188 3.84215C8.94311 3.60882 8.91398 3.25823 8.66671 3.0589C8.41936 2.85949 8.04764 2.88719 7.83641 3.12038C6.4559 4.64445 5.66454 6.5683 5.58869 8.56845C2.20412 10.3533 0.116821 13.6934 0.116821 17.3651C0.116821 22.4473 4.1284 26.7212 9.4327 27.3614C10.2852 28.4556 11.4112 29.306 12.6877 29.8536C13.3923 31.3522 14.763 32.5285 16.4552 33.1793L16.8582 36.1292C16.9986 37.1569 17.9329 37.9319 19.0313 37.9319H20.0278C21.1262 37.9319 22.0604 37.1569 22.2008 36.1292L22.6039 33.1793C24.2961 32.5285 25.6668 31.3522 26.3713 29.8536C27.6478 29.3062 28.7738 28.4557 29.6264 27.3616C31.1043 27.184 32.5004 26.7247 33.7797 25.995C34.058 25.8362 34.1472 25.4947 33.9789 25.2321C33.8105 24.9694 33.4484 24.8854 33.1701 25.0441ZM5.93019 15.3575C5.70019 15.5745 5.70019 15.9262 5.93019 16.1431C6.16026 16.3601 6.53309 16.3601 6.76308 16.1431C7.47356 15.4729 8.41811 15.1038 9.42289 15.1038C9.74821 15.1038 10.0118 14.855 10.0118 14.5482C10.0118 14.2414 9.74821 13.9927 9.42289 13.9927C8.10354 13.9928 6.8632 14.4773 5.93019 15.3575ZM20.0277 36.8207C20.5357 36.8207 20.9676 36.4623 21.0326 35.9871L21.366 33.5467C20.1553 33.8078 18.9023 33.8075 17.6929 33.5467L18.0263 35.9871C18.0913 36.4623 18.5232 36.8207 19.0312 36.8207H20.0277ZM14.3837 30.3821C15.593 30.6261 16.8157 30.6058 17.9564 30.3613C18.601 30.2231 19.1473 29.886 19.5294 29.4274C19.9115 29.886 20.4578 30.2231 21.1025 30.3613C22.2454 30.6063 23.468 30.6256 24.6751 30.3822C22.2359 33.379 16.822 33.3777 14.3837 30.3821ZM33.1287 16.1431C32.8987 16.3601 32.5259 16.3601 32.2958 16.1431C31.5853 15.4729 30.6408 15.1039 29.636 15.1039C29.3107 15.1039 29.0471 14.8551 29.0471 14.5483C29.0471 14.2415 29.3107 13.9927 29.636 13.9927C30.9554 13.9927 32.1957 14.4774 33.1287 15.3575C33.3587 15.5744 33.3587 15.9262 33.1287 16.1431ZM13.0288 19.0687C13.0288 19.3756 13.2924 19.6243 13.6177 19.6243C13.9431 19.6243 14.2067 19.3756 14.2067 19.0687C14.2067 18.8128 14.4274 18.6047 14.6986 18.6047C14.9698 18.6047 15.1906 18.8129 15.1906 19.0687C15.1906 19.3756 15.4542 19.6243 15.7795 19.6243C16.1048 19.6243 16.3684 19.3756 16.3684 19.0687C16.3684 18.2002 15.6194 17.4936 14.6986 17.4936C13.7778 17.4936 13.0288 18.2002 13.0288 19.0687ZM20.2321 19.8955C20.0546 20.0876 19.7986 20.1977 19.5295 20.1977C19.2604 20.1977 19.0043 20.0876 18.8269 19.8955C18.6133 19.6642 18.2412 19.6402 17.996 19.8417C17.7508 20.0433 17.7254 20.3943 17.939 20.6256C18.3402 21.0598 18.9199 21.3088 19.5295 21.3088C20.1391 21.3088 20.7187 21.0598 21.12 20.6256C21.3337 20.3943 21.3082 20.0433 21.063 19.8417C20.8177 19.6401 20.4458 19.6642 20.2321 19.8955ZM23.2795 19.6243C22.9542 19.6243 22.6906 19.3756 22.6906 19.0687C22.6906 18.2002 23.4397 17.4936 24.3604 17.4936C25.2811 17.4936 26.0302 18.2002 26.0302 19.0687C26.0302 19.3756 25.7666 19.6243 25.4412 19.6243C25.1159 19.6243 24.8523 19.3756 24.8523 19.0687C24.8523 18.8129 24.6316 18.6047 24.3604 18.6047C24.0892 18.6047 23.8684 18.8128 23.8684 19.0687C23.8684 19.3756 23.6048 19.6243 23.2795 19.6243ZM20.8315 5.16186H18.2275C17.6436 5.16186 17.1686 5.60993 17.1686 6.16075V8.50497H14.6837C14.0998 8.50497 13.6248 8.95312 13.6248 9.50393V11.9603C13.6248 12.5111 14.0999 12.9592 14.6837 12.9592H17.1686V15.3034C17.1686 15.8542 17.6437 16.3023 18.2275 16.3023H20.8315C21.4154 16.3023 21.8904 15.8542 21.8904 15.3034V12.9592H24.3754C24.9592 12.9592 25.4343 12.5111 25.4343 11.9603V9.50393C25.4343 8.95312 24.9592 8.50497 24.3754 8.50497H21.8904V6.16075C21.8904 5.60993 21.4153 5.16186 20.8315 5.16186ZM24.2564 11.8481V9.61608H21.7715C21.1877 9.61608 20.7126 9.16801 20.7126 8.61719V6.27297H18.3465V8.61719C18.3465 9.16801 17.8715 9.61608 17.2876 9.61608H14.8027V11.8481H17.2876C17.8714 11.8481 18.3465 12.2962 18.3465 12.847V15.1912H20.7126V12.847C20.7126 12.2962 21.1876 11.8481 21.7715 11.8481H24.2564Z" fill="black"/>
</g>
</svg>
