<svg width="47" height="40" viewBox="0 0 47 40" fill="none" xmlns="http://www.w3.org/2000/svg">
<g id="dentist">
<path id="Path" d="M1.52503 11.1352C1.43612 5.47061 6.18572 0.703601 12.1489 0.669259C14.9271 0.653243 17.4607 1.64432 19.3705 3.28041C20.5227 4.26751 22.2917 4.26751 23.4439 3.28041C25.3538 1.64432 27.8874 0.653322 30.6656 0.669259C36.6287 0.703601 41.3783 5.47061 41.2895 11.1352C41.162 19.2665 36.0025 21.4241 36.0025 28.3094C36.0025 35.1481 32.6764 39.331 29.4216 39.331C25.9801 39.331 23.9935 35.511 22.6149 32.2283C22.1806 31.194 20.634 31.194 20.1996 32.2283C18.821 35.511 16.8344 39.331 13.3929 39.331C10.1382 39.331 6.81201 35.1481 6.81201 28.3094C6.81193 21.4241 1.65252 19.2665 1.52503 11.1352Z" fill="#FCF2D0"/>
<path id="Path_2" d="M9.08234 1.12201C4.63973 2.44105 1.45206 6.48536 1.52503 11.1352C1.65252 19.2665 6.81201 21.4241 6.81201 28.3094C6.81201 35.1481 10.1382 39.331 13.3929 39.331C16.5741 39.331 18.5121 36.0671 19.876 32.9806C11.3771 30.0941 5.75871 10.243 9.08234 1.12201Z" fill="#FAE0BD"/>
<g id="Group">
<path id="Path_3" d="M17.026 13.9693C17.0266 15.0401 15.8797 15.9086 14.4644 15.9093C13.0491 15.9099 11.9013 15.0425 11.9008 13.9718C11.9002 12.901 13.0471 12.0325 14.4624 12.0318C15.8777 12.0312 17.0255 12.8986 17.026 13.9693Z" fill="#EDA1AB"/>
<path id="Path_4" d="M25.7911 13.9652C25.7917 15.036 26.9395 15.9034 28.3548 15.9027C29.7701 15.902 30.917 15.0335 30.9164 13.9627C30.9158 12.892 29.7681 12.0246 28.3528 12.0252C26.9375 12.0259 25.7906 12.8945 25.7911 13.9652Z" fill="#EDA1AB"/>
<path id="Path_5" d="M23.9202 13.0896C23.9194 11.6148 22.7946 11.4768 21.4073 11.4774C20.02 11.478 18.8954 11.6171 18.8961 13.092C18.8969 14.5668 20.0222 15.7618 21.4095 15.7611C22.7969 15.7605 23.9209 14.5644 23.9202 13.0896Z" fill="#4E5660"/>
</g>
<path id="Oval" d="M40.5355 31.6313C44.0906 28.254 44.0906 22.7782 40.5355 19.4008C36.9804 16.0235 31.2164 16.0235 27.6613 19.4008C24.1062 22.7782 24.1062 28.254 27.6613 31.6313C31.2164 35.0087 36.9804 35.0087 40.5355 31.6313Z" fill="#EDA1AB"/>
<path id="Path_6" d="M35.903 23.3542V20.8439C35.903 20.5936 35.6895 20.3908 35.4261 20.3908H32.7837C32.5203 20.3908 32.3068 20.5937 32.3068 20.8439V23.3542C32.3068 23.6044 32.0933 23.8073 31.8299 23.8073H29.1875C28.924 23.8073 28.7106 24.0101 28.7106 24.2603V26.7706C28.7106 27.0209 28.9241 27.2237 29.1875 27.2237H31.8299C32.0933 27.2237 32.3068 27.4265 32.3068 27.6767V30.187C32.3068 30.4373 32.5203 30.6401 32.7837 30.6401H35.4261C35.6896 30.6401 35.903 30.4372 35.903 30.187V27.6767C35.903 27.4265 36.1166 27.2237 36.3799 27.2237H39.0223C39.2858 27.2237 39.4993 27.0208 39.4993 26.7706V24.2603C39.4993 24.01 39.2857 23.8073 39.0223 23.8073H36.3799C36.1166 23.8073 35.903 23.6044 35.903 23.3542Z" fill="white"/>
<path id="Shape" fill-rule="evenodd" clip-rule="evenodd" d="M8.18121 33.4123C7.69013 31.8813 7.4411 30.1645 7.4411 28.3095C7.4411 24.84 6.20581 22.5589 4.92917 20.2014C3.59607 17.7396 2.21788 15.1946 2.15404 11.1263C2.06966 5.74782 6.57711 1.29906 12.1528 1.26695C14.6712 1.25189 17.0826 2.12511 18.9493 3.72424C20.3507 4.92471 22.464 4.92463 23.8652 3.72424C25.7319 2.12503 28.1427 1.25149 30.6617 1.26695C32.7925 1.27922 34.8258 1.93093 36.5417 3.15181C36.8198 3.34965 37.214 3.29587 37.4223 3.03173C37.6306 2.7675 37.574 2.393 37.2959 2.19515C35.3629 0.819854 33.0715 0.0855907 30.6694 0.0717261C27.8396 0.0557102 25.1231 1.0373 23.0227 2.83667C22.117 3.6126 20.6978 3.61268 19.7919 2.83667C17.7087 1.05212 15.0203 0.0715668 12.2147 0.0715668L12.1451 0.0717261C5.86433 0.107901 0.801388 5.10527 0.896082 11.1441C0.964186 15.4869 2.40993 18.1582 3.77222 20.6753C5.01216 22.9664 6.18298 25.1297 6.18298 28.3094C6.18298 30.2826 6.45037 32.1167 6.97778 33.7607C7.07901 34.0764 7.43028 34.2544 7.76293 34.1582C8.09516 34.0619 8.28245 33.728 8.18121 33.4123ZM26.9208 10.1928C26.574 10.1928 26.2924 10.4597 26.2918 10.7893L26.2899 11.7455C26.2892 12.0756 26.5704 12.3436 26.9178 12.3442H26.9191C27.2659 12.3442 27.5475 12.0774 27.5481 11.7477L27.55 10.7916C27.5506 10.4615 27.2695 10.1935 26.9221 10.1928H26.9208ZM41.9185 11.144C41.8687 14.3233 41.0732 16.568 40.2423 18.3438C42.4354 20.0408 43.8388 22.6253 43.8388 25.5155C43.8388 30.1606 40.2145 34.0163 35.5113 34.6658C34.2102 37.9221 31.9009 39.9286 29.4216 39.9286C25.5645 39.9286 23.4474 35.8234 22.0306 32.4498C21.8068 31.9171 21.0076 31.9171 20.7839 32.4498C19.3665 35.8249 17.2468 39.9286 13.3929 39.9286C11.4524 39.9286 9.56516 38.6758 8.21502 36.4913C8.03905 36.2067 8.13936 35.8405 8.43897 35.6734C8.7384 35.5061 9.12406 35.6014 9.29994 35.8861C10.4183 37.6955 11.9101 38.7333 13.3929 38.7333C16.3868 38.7333 18.2185 35.333 19.6153 32.0068C20.2596 30.4728 22.5549 30.4728 23.1991 32.0068C24.5961 35.333 26.4277 38.7333 29.4216 38.7333C31.2095 38.7333 32.99 37.2014 34.1111 34.7626C28.7165 34.7626 24.371 30.5966 24.371 25.5155C24.371 20.4166 28.7376 16.2683 34.1049 16.2683C35.9694 16.2683 37.7129 16.7693 39.1948 17.6365C39.9345 16.0081 40.6161 13.9627 40.6606 11.1262C40.6947 8.94918 39.9493 6.79444 38.5615 5.05906C38.3513 4.79627 38.4052 4.42137 38.6819 4.22169C38.9587 4.02201 39.3532 4.07332 39.5633 4.33603C41.1204 6.2832 41.9569 8.70097 41.9185 11.144ZM34.1049 33.5674C29.4314 33.5674 25.6292 29.9553 25.6292 25.5155C25.6292 21.0756 29.4314 17.4635 34.1049 17.4635C38.7784 17.4635 42.5806 21.0756 42.5806 25.5155C42.5806 29.9553 38.7784 33.5674 34.1049 33.5674ZM36.5321 23.2097H39.0224C39.6322 23.2097 40.1284 23.681 40.1284 24.2603V26.7706C40.1284 27.35 39.6322 27.8213 39.0224 27.8213H36.5321V30.187C36.5321 30.7664 36.0359 31.2378 35.4261 31.2378H32.7837C32.1738 31.2378 31.6776 30.7664 31.6776 30.187V27.8213H29.1874C28.5775 27.8213 28.0814 27.35 28.0814 26.7706V24.2603C28.0814 23.681 28.5775 23.2097 29.1874 23.2097H31.6776V20.8439C31.6776 20.2646 32.1738 19.7932 32.7837 19.7932H35.4261C36.0359 19.7932 36.5321 20.2646 36.5321 20.8439V23.2097ZM38.8703 26.6261H36.38C35.7701 26.6261 35.2739 27.0975 35.2739 27.6768V30.0426H32.9358V27.6768C32.9358 27.0975 32.4396 26.6261 31.8298 26.6261H29.3395V24.405H31.8298C32.4396 24.405 32.9358 23.9336 32.9358 23.3543V20.9885H35.2739V23.3543C35.2739 23.9336 35.7701 24.405 36.38 24.405H38.8703V26.6261ZM14.5727 11.6528C14.5748 10.7068 15.3858 9.93842 16.3813 9.93842V9.9385H16.385C17.3823 9.94065 18.1919 10.7131 18.1897 11.6604C18.1889 11.99 17.9074 12.2567 17.5607 12.2567H17.5593C17.2119 12.2559 16.9309 11.9877 16.9316 11.6577C16.9323 11.3693 16.6859 11.1343 16.3823 11.1336H16.3812C16.0782 11.1336 15.8315 11.3674 15.8308 11.6554C15.8301 11.985 15.5485 12.2517 15.2018 12.2517H15.2004C14.853 12.251 14.5719 11.9829 14.5727 11.6528ZM21.407 10.8798C20.3875 10.8803 18.2659 10.8813 18.2671 13.0924C18.268 14.858 19.6346 16.3588 21.4083 16.3588H21.4099C23.1418 16.358 24.5501 14.8913 24.5492 13.0893C24.5487 12.1787 24.1849 11.5421 23.4679 11.1971C22.9195 10.9332 22.2458 10.8824 21.407 10.8798ZM21.4083 15.1635H21.4092C22.4474 15.163 23.2916 14.2328 23.291 13.0899C23.2907 12.5289 23.1027 12.361 22.8994 12.2633C22.5566 12.0983 21.9853 12.075 21.4176 12.075H21.4076C19.7843 12.0758 19.5247 12.3171 19.5251 13.0917C19.5257 14.1838 20.3266 15.1635 21.4083 15.1635Z" fill="black"/>
</g>
</svg>
