<svg width="30" height="38" viewBox="0 0 30 38" fill="none" xmlns="http://www.w3.org/2000/svg">
<g id="dna icon">
<path id="Path" d="M25.9653 37.4434C27.4466 37.4434 28.6475 36.3019 28.6475 34.8939C28.6475 31.0315 27.3463 27.5529 24.6694 24.2594C20.3341 18.9255 13.4756 15.3569 9.62825 10.6232C7.67789 8.22344 6.76951 5.83478 6.76951 3.10605C6.76943 1.69805 5.56864 0.556641 4.08739 0.556641C2.60614 0.556641 1.40527 1.69805 1.40527 3.10613C1.40527 6.96855 2.70647 10.4471 5.38336 13.7406C9.71866 19.0744 16.5771 22.6431 20.4246 27.3768C22.3749 29.7765 23.2833 32.1651 23.2833 34.8939C23.2833 36.3019 24.4841 37.4434 25.9653 37.4434Z" fill="#7ACEFA"/>
<path id="Path_2" d="M24.0678 5.13965H15.0263C14.1286 5.13965 13.4009 4.44786 13.4009 3.59449C13.4009 2.74113 14.1286 2.04941 15.0263 2.04941H24.0678C24.9655 2.04941 25.6933 2.7412 25.6933 3.59449C25.6933 4.44779 24.9655 5.13965 24.0678 5.13965Z" fill="#EDA1AB"/>
<path id="Path_3" d="M15.0264 5.13965H5.98496C5.0872 5.13965 4.3595 4.44786 4.3595 3.59449C4.3595 2.74113 5.0872 2.04941 5.98496 2.04941H15.0264C15.9241 2.04941 16.6519 2.7412 16.6519 3.59449C16.6519 4.44779 15.9241 5.13965 15.0264 5.13965Z" fill="#F6EE86"/>
<path id="Path_4" d="M15.0264 11.4246H7.99058C7.09282 11.4246 6.36511 10.7328 6.36511 9.87948C6.36511 9.02611 7.09282 8.33432 7.99058 8.33432H15.0264C15.9241 8.33432 16.6519 9.02611 16.6519 9.87948C16.6519 10.7328 15.9241 11.4246 15.0264 11.4246Z" fill="#EDA1AB"/>
<path id="Path_5" d="M22.0621 11.4246H15.0263C14.1286 11.4246 13.4009 10.7328 13.4009 9.87948C13.4009 9.02611 14.1286 8.33432 15.0263 8.33432H22.0621C22.9599 8.33432 23.6877 9.02611 23.6877 9.87948C23.6877 10.7328 22.9599 11.4246 22.0621 11.4246Z" fill="#F6EE86"/>
<path id="Path_6" d="M15.0264 35.9506H5.98496C5.0872 35.9506 4.3595 35.2589 4.3595 34.4055C4.3595 33.5521 5.0872 32.8604 5.98496 32.8604H15.0264C15.9241 32.8604 16.6519 33.5521 16.6519 34.4055C16.6519 35.2589 15.9241 35.9506 15.0264 35.9506Z" fill="#EDA1AB"/>
<path id="Path_7" d="M5.98492 32.8604C5.08716 32.8604 4.35938 33.5521 4.35938 34.4055C4.35938 35.2589 5.08716 35.9507 5.98492 35.9507H8.98631C9.2307 34.9268 8.98108 34.3945 9.33595 32.8604H5.98492V32.8604Z" fill="#E8899E"/>
<path id="Path_8" d="M24.0678 35.9506H15.0263C14.1286 35.9506 13.4009 35.2589 13.4009 34.4055C13.4009 33.5521 14.1286 32.8604 15.0263 32.8604H24.0678C24.9655 32.8604 25.6933 33.5521 25.6933 34.4055C25.6933 35.2589 24.9655 35.9506 24.0678 35.9506Z" fill="#F6EE86"/>
<path id="Path_9" d="M22.0621 29.6656H15.0263C14.1286 29.6656 13.4009 28.9738 13.4009 28.1204C13.4009 27.2671 14.1286 26.5754 15.0263 26.5754H22.0621C22.9599 26.5754 23.6877 27.2671 23.6877 28.1204C23.6877 28.9738 22.9599 29.6656 22.0621 29.6656Z" fill="#EDA1AB"/>
<path id="Path_10" d="M15.0264 29.6656H7.99058C7.09282 29.6656 6.36511 28.9738 6.36511 28.1204C6.36511 27.2671 7.09282 26.5754 7.99058 26.5754H15.0264C15.9241 26.5754 16.6519 27.2671 16.6519 28.1204C16.6519 28.9738 15.9241 29.6656 15.0264 29.6656Z" fill="#F6EE86"/>
<path id="Path_11" d="M7.99053 29.6656H10.7869C11.5568 28.5406 12.5299 27.5122 13.5333 26.5754H7.99053C7.09277 26.5754 6.36499 27.2672 6.36499 28.1205C6.36499 28.9738 7.09277 29.6656 7.99053 29.6656Z" fill="#F2D98D"/>
<path id="Path_12" d="M22.0621 8.3344H19.2657C18.4958 9.4594 17.5228 10.4878 16.5193 11.4246H22.0621C22.9599 11.4246 23.6876 10.7329 23.6876 9.87956C23.6876 9.02619 22.9599 8.3344 22.0621 8.3344Z" fill="#F2D98D"/>
<path id="Path_13" d="M24.0678 5.13965C24.9656 5.13965 25.6934 4.44786 25.6934 3.59457C25.6934 2.7412 24.9656 2.04941 24.0678 2.04941H21.0664C20.822 3.07333 21.0717 3.60555 20.7168 5.13965H24.0678Z" fill="#E8899E"/>
<path id="Path_14" d="M4.08739 37.4434C2.60606 37.4434 1.40527 36.3019 1.40527 34.8939C1.40527 31.0315 2.70647 27.5529 5.38336 24.2594C9.71866 18.9255 16.5771 15.3569 20.4246 10.6232C22.3749 8.22344 23.2833 5.83478 23.2833 3.10605C23.2833 1.69805 24.4841 0.556641 25.9653 0.556641C27.4466 0.556641 28.6475 1.69805 28.6475 3.10613C28.6475 6.96855 27.3463 10.4471 24.6694 13.7406C20.3341 19.0744 13.4756 22.6431 9.62825 27.3768C7.67789 29.7765 6.76951 32.1651 6.76951 34.8939C6.76943 36.3019 5.56864 37.4434 4.08739 37.4434Z" fill="#A3DEFE"/>
<path id="Shape" fill-rule="evenodd" clip-rule="evenodd" d="M5.06954 23.7369C6.50777 22.0025 8.19788 20.4577 9.95382 18.9999C8.37684 17.6917 6.48997 16.0125 4.91994 14.0809C2.16083 10.6863 0.819654 7.09643 0.819654 3.10613C0.819654 1.39338 2.28552 0 4.08729 0C5.23272 0 6.28883 0.57616 6.87685 1.49269H23.1741C23.7484 0.598352 24.7848 0 25.9654 0C27.7672 0 29.233 1.39338 29.233 3.1062C29.233 5.4435 28.7827 7.60074 27.8563 9.70121C27.7313 9.9848 27.3882 10.1182 27.0899 9.99934C26.7917 9.88045 26.6512 9.55426 26.7763 9.27074C27.6414 7.30921 28.0619 5.29276 28.0619 3.10613C28.0619 2.00725 27.1215 1.11328 25.9654 1.11328C24.8094 1.11328 23.8689 2.00725 23.8689 3.10613C23.8689 9.48427 18.9181 13.3657 13.7153 17.4447C10.9825 19.5872 8.18014 21.7842 5.98924 24.4261C5.78904 24.6676 5.42082 24.709 5.1669 24.5187C4.91291 24.3284 4.86934 23.9784 5.06954 23.7369ZM11.6439 11.9813C12.7264 13.0554 13.9215 14.0629 15.0265 14.9554C16.2404 13.9752 17.3881 12.9976 18.4114 11.9813H11.6439ZM13.0758 10.868H7.99059C7.41717 10.868 6.95073 10.4245 6.95073 9.87955C6.95073 9.33449 7.41725 8.89111 7.99059 8.89111C8.12758 8.89124 11.9408 8.89114 12.8723 8.89111H12.9114L12.961 8.89111L13.0758 8.89111C12.7352 9.49584 12.7215 10.2389 13.0758 10.868ZM15.0264 10.868H19.4628C20.0111 10.2467 20.5031 9.62335 20.9702 8.89111H15.0257C14.4525 8.89148 13.9865 9.33471 13.9865 9.87955C13.9865 10.4245 14.4529 10.868 15.0264 10.868ZM21.6025 7.77775H8.44986C8.10818 7.0939 7.85122 6.40597 7.67148 5.69621H22.3819C22.2017 6.40471 21.9426 7.09568 21.6025 7.77775ZM22.6944 3.27319V3.27318V3.27316V3.27314C22.6985 3.03068 22.7018 2.83282 22.7406 2.60597H16.9769C17.3311 3.23497 17.3175 3.97805 16.9769 4.58293H22.5985C22.6828 3.96912 22.6892 3.58441 22.6944 3.27319ZM15.0264 2.60604C15.5998 2.60604 16.0662 3.0495 16.0662 3.59449C16.0662 4.13955 15.5997 4.58293 15.0264 4.58293H5.98495C5.41146 4.58293 4.94501 4.13948 4.94501 3.59449C4.94501 3.04943 5.41153 2.60597 5.98495 2.60597C6.73272 2.60597 15.0619 2.60604 15.0264 2.60604ZM5.41216 1.56461C5.04425 1.27931 4.57874 1.11328 4.0873 1.11328C2.93133 1.11328 1.99086 2.00725 1.99086 3.10613C1.99086 9.64391 5.76344 14.0653 10.8502 18.2659C11.5446 17.7055 12.2238 17.1719 12.9208 16.6244C13.3121 16.317 13.709 16.0052 14.1173 15.6819C12.7709 14.5896 11.3051 13.3321 10.0528 11.9813H7.99035C6.77114 11.9813 5.77929 11.0385 5.77929 9.87955C5.77929 8.97661 6.38144 8.20496 7.22408 7.90808C6.89044 7.18437 6.64051 6.45302 6.46842 5.69621H5.98488C4.76566 5.69621 3.77373 4.75341 3.77373 3.59449C3.77373 2.62378 4.46974 1.80507 5.41216 1.56461ZM20.0988 19C22.5651 16.9525 24.8776 14.7544 26.5721 12.0919C26.7396 11.8289 26.651 11.4867 26.3742 11.3276C26.0974 11.1684 25.7375 11.2526 25.57 11.5157C23.2769 15.1184 19.7565 17.8765 16.3418 20.5518C11.1402 24.627 6.18382 28.5102 6.18382 34.8939C6.18382 35.9928 5.24335 36.8867 4.0873 36.8867C2.93125 36.8867 1.99078 35.9928 1.99078 34.8939C1.99078 31.9111 2.78305 29.1963 4.41313 26.5946C4.57858 26.3304 4.48746 25.9888 4.20949 25.8315C3.93184 25.6743 3.57228 25.7608 3.40675 26.025C1.66589 28.8039 0.81958 31.7049 0.81958 34.8939C0.81958 36.6066 2.28545 38 4.0873 38C5.26794 38 6.3043 37.4016 6.87857 36.5072H23.1758C23.7639 37.4238 24.8199 38 25.9654 38C27.7672 38 29.2331 36.6066 29.2331 34.8939C29.2331 30.9036 27.892 27.3137 25.1329 23.9191C23.5627 21.9875 21.6757 20.3082 20.0988 19ZM18.4088 26.0187C17.3262 24.9445 16.1312 23.937 15.0261 23.0445C13.8123 24.0248 12.6646 25.0024 11.6412 26.0187H18.4088ZM16.9769 27.132H22.0621C22.6355 27.132 23.102 27.5755 23.102 28.1204C23.102 28.6655 22.6355 29.1089 22.0621 29.1089H16.9769C17.3175 28.5041 17.3312 27.7611 16.9769 27.132ZM15.0264 27.132H10.5899C10.0421 27.7528 9.54992 28.3762 9.08253 29.1089H15.0264C15.5997 29.1089 16.0662 28.6655 16.0662 28.1204C16.0662 27.5755 15.5998 27.132 15.0264 27.132ZM8.45024 30.2222H21.6029C21.9445 30.9061 22.2015 31.594 22.3812 32.3038H7.67093C7.85106 31.5953 8.11013 30.9043 8.45024 30.2222ZM7.31208 35.394H13.0758C12.7215 34.7649 12.7352 34.0218 13.0758 33.417H7.45426C7.36992 34.0312 7.36349 34.4157 7.35828 34.7267C7.35423 34.9691 7.35092 35.1668 7.31208 35.394ZM15.0264 35.394C14.4529 35.394 13.9865 34.9505 13.9865 34.4055C13.9865 33.8604 14.453 33.4171 15.0264 33.4171L23.379 33.4171L24.0678 33.4171C24.6412 33.4171 25.1076 33.8605 25.1076 34.4055C25.1076 34.9506 24.6411 35.394 24.0678 35.394H15.0264ZM26.2788 34.4054C26.2788 35.3761 25.5829 36.1949 24.6405 36.4353C26.003 37.4921 28.0619 36.5773 28.062 34.8938C28.062 28.356 24.2894 23.9347 19.2025 19.7339C18.5094 20.2933 17.8314 20.8259 17.1348 21.3731C16.7428 21.681 16.345 21.9935 15.9354 22.3179C17.2818 23.4102 18.7476 24.6678 19.9998 26.0186H22.0623C23.2815 26.0186 24.2734 26.9614 24.2734 28.1204C24.2734 29.0233 23.6712 29.795 22.8286 30.0918C23.1622 30.8156 23.4121 31.5469 23.5842 32.3037H24.0678C25.287 32.3037 26.2788 33.2465 26.2788 34.4054Z" fill="black"/>
</g>
</svg>
